# xmcd CD database file
#
# Track frame offsets:
#	150
#	15212
#	29007
#	42785
#	57822
#	74112
#	90802
#	106320
#	122532
#	140100
#
# Disc length: 2057 seconds
#
# Revision: 0
# Processed by: cddbd v1.5.1PL0 Copyright (c) Steve Scherf et al.
# Submitted via: CDex 1.51
#
DISCID=7f08070a
DTITLE=Tracey James - Dreaming Out Loud
DYEAR=2003
DGENRE=Country
TTITLE0=You're the Reason Why
TTITLE1=Seemed Like Yesterday
TTITLE2=Connected
TTITLE3=One Mississippi
TTITLE4=Dreaming Out Loud
TTITLE5=Other Side of The Story
TTITLE6=Every Day
TTITLE7=I Was Watching You
TTITLE8='Cause You Beleive In Me
TTITLE9=All About Us
EXTD=YEAR: 2003
EXTT0=
EXTT1=
EXTT2=
EXTT3=
EXTT4=
EXTT5=
EXTT6=
EXTT7=
EXTT8=
EXTT9=
PLAYORDER=
